<svg id="b" viewBox="0 0 512 512" xmlns="http://www.w3.org/2000/svg" data-name="Layer 3"><path d="m227.499 136.107c0-50.394-40.999-91.393-91.392-91.393s-91.393 40.999-91.393 91.393 40.999 91.392 91.393 91.392 91.392-40.999 91.392-91.392zm-125.407-60.231h-17.623c11.059-9.495 24.74-16.015 39.804-18.276-8.359 4.913-15.834 11.098-22.182 18.276zm-8.992 12c-4.707 7.492-8.345 15.693-10.733 24.37h-21.983c2.811-8.902 7.16-17.124 12.72-24.37zm-13.187 36.37c-.538 3.996-.816 8.064-.816 12.185 0 4.09.285 8.16.829 12.185h-22.218c-.648-4.077-.994-8.253-.994-12.509 0-4.031.307-7.99.889-11.861zm2.469 36.37c2.359 8.584 5.953 16.807 10.693 24.371h-19.46c-5.666-7.228-10.109-15.452-13.011-24.371h21.779zm19.673 36.371c6.036 6.808 13.039 12.659 20.728 17.372-14.136-2.399-27.011-8.536-37.565-17.372h16.836zm113.443-60.88c0 38.124-27.015 70.047-62.904 77.659-35.704-8.232-61.498-40.552-61.498-77.334 0-37.502 26.397-69.95 62.937-77.651 35.167 8.152 61.465 39.715 61.465 77.326z"/><path d="m312.919 136.431c0-72.844-59.263-132.106-132.107-132.106h-35.519c-3.036-.209-6.098-.325-9.187-.325-72.843 0-132.106 59.263-132.106 132.107s59.239 132.083 132.063 132.106 44.749.325 44.749.325c72.844 0 132.107-59.263 132.107-132.107zm-47.251 84.926h-28.729c6.319-7.462 11.826-15.63 16.384-24.37h31.177c-5.227 8.917-11.565 17.108-18.832 24.37zm-40.248 12h26.243c-17.199 12.609-37.86 20.752-60.263 22.712 12.518-5.793 23.983-13.487 34.02-22.712zm73.052-121.111h-32.423c-1.544-8.427-3.886-16.579-6.952-24.37h31.558c3.431 7.732 6.076 15.888 7.817 24.37zm2.447 24.185c0 4.113-.209 8.177-.614 12.185h-32.687c.389-4.119.596-8.29.596-12.509 0-3.998-.189-7.952-.538-11.861h32.629c.406 4.008.614 8.072.614 12.185zm-34.994 24.185h32.547c-1.741 8.483-4.386 16.638-7.817 24.371h-31.82c3.113-7.788 5.5-15.939 7.089-24.371zm18.574-84.74h-30.833c-4.492-8.732-9.933-16.899-16.179-24.371h28.175c7.269 7.262 13.608 15.453 18.836 24.371zm-32.845-36.371h-25.537c-9.744-9.085-20.853-16.722-32.99-22.553 21.738 2.224 41.774 10.275 58.527 22.553zm-235.654 96.602c0-66.227 53.88-120.107 120.107-120.107s120.107 53.88 120.107 120.107-53.88 120.107-120.107 120.107-120.107-53.88-120.107-120.107z"/><path d="m154.345 84.961c-12.019 2.66-21.173 13.105-21.4 25.558-.132 7.234 2.583 14.058 7.647 19.216 5.065 5.159 11.836 8 19.065 8 3.982 0 7.712 1.565 10.503 4.408 2.79 2.841 4.286 6.601 4.212 10.588-.146 7.962-7.055 14.44-15.402 14.44h-5.349c-4.248 0-7.703-3.456-7.703-7.703 0-3.313-2.687-6-6-6s-6 2.687-6 6c0 10.864 8.839 19.703 19.703 19.703h.723v5.093c0 3.313 2.687 6 6 6s6-2.687 6-6v-6.096c11.336-3.126 19.807-13.243 20.026-25.217.132-7.233-2.583-14.058-7.647-19.215-5.065-5.159-11.836-8-19.066-8-3.982 0-7.712-1.565-10.502-4.407-2.79-2.841-4.286-6.602-4.212-10.589.146-7.962 7.055-14.439 15.402-14.439h5.349c4.248 0 7.703 3.456 7.703 7.703 0 3.313 2.687 6 6 6s6-2.687 6-6c0-10.645-8.49-19.322-19.052-19.67v-5.126c0-3.313-2.687-6-6-6s-6 2.687-6 6v5.755z"/><path d="m422.58 375.568c0-50.394-40.999-91.392-91.392-91.392s-91.393 40.998-91.393 91.392 40.999 91.393 91.393 91.393 91.392-40.999 91.392-91.393zm-125.406-60.23h-17.622c11.059-9.495 24.739-16.014 39.804-18.275-8.358 4.913-15.834 11.098-22.181 18.275zm-8.992 12c-4.708 7.492-8.345 15.693-10.733 24.37h-21.983c2.812-8.902 7.16-17.124 12.721-24.37h19.996zm-13.187 36.37c-.538 3.996-.816 8.064-.816 12.186 0 4.09.285 8.16.829 12.185h-22.218c-.648-4.077-.994-8.253-.994-12.51 0-4.03.307-7.99.889-11.86h22.31zm2.469 36.37c2.359 8.584 5.952 16.806 10.693 24.37h-19.46c-5.666-7.228-10.108-15.451-13.01-24.37h21.778zm19.673 36.37c6.036 6.808 13.04 12.66 20.729 17.373-14.136-2.4-27.012-8.537-37.566-17.373zm113.444-60.88c0 38.124-27.015 70.047-62.904 77.659-35.704-8.232-61.498-40.551-61.498-77.334 0-37.501 26.397-69.95 62.937-77.651 35.167 8.152 61.465 39.715 61.465 77.325z"/><path d="m375.893 243.787h-35.519c-3.036-.209-6.098-.325-9.187-.325-72.844 0-132.107 59.263-132.107 132.106s59.239 132.083 132.063 132.107 44.749.325 44.749.325c72.844 0 132.107-59.263 132.107-132.106s-59.263-132.107-132.107-132.107zm120.107 132.107c0 4.113-.209 8.177-.614 12.185h-32.687c.389-4.119.596-8.291.596-12.51 0-3.998-.189-7.952-.538-11.86h32.629c.406 4.008.614 8.073.614 12.186zm-34.994 24.185h32.547c-1.741 8.482-4.385 16.638-7.816 24.37h-31.82c3.113-7.788 5.5-15.939 7.089-24.37zm.125-48.37c-1.544-8.427-3.886-16.579-6.952-24.37h31.558c3.431 7.732 6.076 15.888 7.817 24.37zm18.449-36.37h-30.833c-4.492-8.732-9.933-16.898-16.178-24.37h28.175c7.269 7.262 13.608 15.453 18.836 24.37zm-32.844-36.37h-25.537c-9.744-9.085-20.853-16.722-32.991-22.554 21.738 2.224 41.774 10.276 58.527 22.554zm-235.654 96.601c0-66.227 53.88-120.106 120.107-120.106s120.107 53.88 120.107 120.106-53.88 120.107-120.107 120.107-120.107-53.88-120.107-120.107zm209.421 97.25h26.243c-17.2 12.609-37.86 20.752-60.264 22.713 12.519-5.793 23.983-13.487 34.021-22.713zm40.248-12h-28.73c6.319-7.462 11.826-15.63 16.384-24.37h31.177c-5.227 8.917-11.565 17.108-18.832 24.37z"/><path d="m153.066 401.256c-13.521-8.326-25.434-18.929-35.407-31.512-2.399-3.027-4.691-6.189-6.853-9.451l4.331-1.558c4.583-1.648 7.694-5.858 7.924-10.725.23-4.865-2.468-9.35-6.875-11.424l-40.383-19.011c-8.979-4.229-19.722-.361-23.95 8.615l-19.02 40.378c-2.076 4.407-1.3 9.583 1.977 13.188 3.277 3.604 8.357 4.866 12.94 3.218l7.354-2.645c5.021 8.9 10.76 17.438 17.101 25.438 14.183 17.896 31.157 32.994 50.449 44.875.981.604 2.067.892 3.14.892 2.014 0 3.981-1.015 5.115-2.854l24.121-39.169c1.738-2.822.859-6.518-1.962-8.256zm-29.178 35.939c-16.018-10.607-30.222-23.666-42.28-38.88-6.965-8.789-13.157-18.269-18.401-28.177-1.065-2.012-3.135-3.193-5.304-3.193-.676 0-1.362.115-2.03.355l-12.185 4.383 19.02-40.379c1.41-2.992 4.992-4.28 7.983-2.871l40.383 19.011-11.333 4.076c-1.682.604-3.007 1.928-3.613 3.609s-.432 3.547.477 5.086c3.502 5.935 7.422 11.647 11.649 16.981 9.587 12.097 20.828 22.513 33.474 31.027l-17.84 28.971z"/><path d="m358.934 110.744c13.521 8.326 25.433 18.929 35.407 31.513 2.399 3.027 4.691 6.189 6.853 9.45l-4.331 1.557c-4.583 1.649-7.694 5.858-7.924 10.724s2.468 9.351 6.875 11.425l40.383 19.01c2.47 1.163 5.073 1.713 7.638 1.713 6.757 0 13.247-3.821 16.312-10.329l19.02-40.377c2.076-4.407 1.3-9.583-1.977-13.188-3.277-3.604-8.357-4.867-12.94-3.218l-7.354 2.646c-3.362-5.954-7.073-11.788-11.068-17.397-1.922-2.699-5.668-3.329-8.368-1.407-2.699 1.922-3.329 5.668-1.407 8.368 4.708 6.612 8.994 13.552 12.74 20.627 1.397 2.64 4.523 3.849 7.333 2.839l12.185-4.383-19.02 40.378c-1.41 2.992-4.992 4.281-7.983 2.872l-40.383-19.01 11.332-4.076c1.682-.605 3.007-1.929 3.613-3.61s.432-3.545-.477-5.085c-3.502-5.935-7.421-11.648-11.649-16.981-9.587-12.097-20.828-22.514-33.474-31.027l17.839-28.969c5.708 3.785 11.239 7.919 16.498 12.336 2.537 2.13 6.322 1.803 8.454-.736 2.131-2.538 1.802-6.322-.736-8.454-7.246-6.085-14.977-11.669-22.979-16.597-2.822-1.737-6.518-.859-8.255 1.963l-24.121 39.169c-.834 1.355-1.097 2.986-.729 4.534s1.336 2.887 2.691 3.721z"/><path d="m348.937 362.264-23.492-26.91c-2.18-2.496-5.971-2.753-8.466-.573-2.497 2.179-2.753 5.969-.574 8.466l19.329 22.142h-2.605c-3.313 0-6 2.687-6 6s2.687 6 6 6h9.808v9.089h-9.808c-3.313 0-6 2.687-6 6s2.687 6 6 6h9.808v20.194c0 3.313 2.687 6 6 6s6-2.687 6-6v-20.194h9.808c3.313 0 6-2.687 6-6s-2.687-6-6-6h-9.808v-9.089h9.808c3.313 0 6-2.687 6-6s-2.687-6-6-6h-2.605l19.329-22.142c2.179-2.497 1.922-6.287-.574-8.466s-6.287-1.922-8.466.573z"/><circle cx="425.816" cy="99.123" r="6"/></svg>