<svg id="Colored" enable-background="new 0 0 62 62" height="300" viewBox="0 0 62 62" width="300" xmlns="http://www.w3.org/2000/svg" version="1.1" xmlns:xlink="http://www.w3.org/1999/xlink" xmlns:svgjs="http://svgjs.dev/svgjs"><g width="100%" height="100%" transform="matrix(1,0,0,1,0,0)"><g><g fill="#f0bc5e"><circle cx="49" cy="13" r="9" fill="#4cd015" fill-opacity="1" data-original-color="#f0bc5eff" stroke="none" stroke-opacity="1" style=""/><path d="m28.433 15.492-.564-.988c-.247-.433-.863-.583-1.329-.396-3.14 1.255-6.447 1.892-9.829 1.892h-4.606c-6.675 0-12.105 5.43-12.105 12.104 0 2.042.522 4.065 1.509 5.853l.303.002c.548-.587 1.322-.959 2.188-.959h1v-4.084c0-2.163 1.753-3.916 3.915-3.916.71 0 1.406.193 2.015.558 2.663 1.598 5.711 2.442 8.816 2.442h5.254c1.105 0 2-.895 2-2v5 1 1h1c.943 0 1.773.444 2.323 1.124l.502.003c.769-1.615 1.175-3.414 1.175-5.203 0-4.704-1.233-9.348-3.567-13.432z" fill="#4cd015" fill-opacity="1" data-original-color="#f0bc5eff" stroke="none" stroke-opacity="1" style=""/><path d="m48 44h10v14h-10z" fill="#4cd015" fill-opacity="1" data-original-color="#f0bc5eff" stroke="none" stroke-opacity="1" style=""/><path d="m38 28v17h7v-2l6-2v-13z" fill="#4cd015" fill-opacity="1" data-original-color="#f0bc5eff" stroke="none" stroke-opacity="1" style=""/><path d="m34 52h8v9h-8z" fill="#4cd015" fill-opacity="1" data-original-color="#f0bc5eff" stroke="none" stroke-opacity="1" style=""/></g><path d="m27.798 40h.202c2.206 0 4-1.794 4-4s-1.794-4-4-4v-6c0-1.654-1.346-3-3-3h-1v2h1c.551 0 1 .449 1 1s-.449 1-1 1h-5.253c-2.924 0-5.794-.795-8.302-2.299-.764-.459-1.639-.701-2.529-.701-2.711 0-4.916 2.205-4.916 4.916v3.084c-2.205 0-4 1.794-4 4s1.794 4 4 4h.201c.691 3.392 3.109 6.154 6.288 7.352-3.849 2-6.489 6.018-6.489 10.648v4h24v-4c0-4.63-2.64-8.648-6.49-10.648 3.179-1.198 5.597-3.961 6.288-7.352zm2.202-4c0 1.103-.897 2-2 2v-4c1.103 0 2 .897 2 2zm-28 0c0-1.103.897-2 2-2v4c-1.103 0-2-.897-2-2zm18.601 13.131-.38 3.035-1.9-1.425 1.244-2.073c.355.137.702.288 1.036.463zm-8.166-.463 1.244 2.073-1.9 1.425-.38-3.035c.334-.175.681-.326 1.036-.463zm3.412 3.332h.306l.776 4.657-.929.929-.929-.929zm1.707-3.867-1.12 1.867h-.867l-1.12-1.867c.507-.079 1.023-.133 1.553-.133s1.046.054 1.554.133zm-11.554 9.867c0-3.052 1.378-5.784 3.54-7.62l.681 5.454 3.382-2.537-.674 4.046 2.657 2.657h-9.586zm20 0v2h-9.586l2.657-2.657-.674-4.046 3.382 2.537.681-5.454c2.162 1.836 3.54 4.568 3.54 7.62zm-8.001-12h-3.999c-4.411 0-8-3.588-8-8v-9.084c0-1.608 1.308-2.916 2.916-2.916.528 0 1.047.144 1.5.416 2.818 1.69 6.044 2.584 9.331 2.584h5.253c.351 0 .687-.061 1-.171v9.171c0 4.411-3.589 8-8.001 8z" fill="#000000" fill-opacity="1" data-original-color="#000000ff" stroke="none" stroke-opacity="1"/><path d="m11 39c0 2.757 2.243 5 5 5s5-2.243 5-5v-1h-10zm7.828 1c-.413 1.164-1.525 2-2.829 2s-2.416-.836-2.829-2z" fill="#000000" fill-opacity="1" data-original-color="#000000ff" stroke="none" stroke-opacity="1"/><path d="m13 35h2c0-2.206-1.794-4-4-4s-4 1.794-4 4h2c0-1.103.897-2 2-2s2 .897 2 2z" fill="#000000" fill-opacity="1" data-original-color="#000000ff" stroke="none" stroke-opacity="1"/><path d="m21 31c-2.206 0-4 1.794-4 4h2c0-1.103.897-2 2-2s2 .897 2 2h2c0-2.206-1.795-4-4-4z" fill="#000000" fill-opacity="1" data-original-color="#000000ff" stroke="none" stroke-opacity="1"/><path d="m48 56h2v2h-2z" fill="#000000" fill-opacity="1" data-original-color="#000000ff" stroke="none" stroke-opacity="1"/><path d="m52 56h2v2h-2z" fill="#000000" fill-opacity="1" data-original-color="#000000ff" stroke="none" stroke-opacity="1"/><path d="m56 56h2v2h-2z" fill="#000000" fill-opacity="1" data-original-color="#000000ff" stroke="none" stroke-opacity="1"/><path d="m48 52h2v2h-2z" fill="#000000" fill-opacity="1" data-original-color="#000000ff" stroke="none" stroke-opacity="1"/><path d="m56 52h2v2h-2z" fill="#000000" fill-opacity="1" data-original-color="#000000ff" stroke="none" stroke-opacity="1"/><path d="m52 52h2v2h-2z" fill="#000000" fill-opacity="1" data-original-color="#000000ff" stroke="none" stroke-opacity="1"/><path d="m48 48h2v2h-2z" fill="#000000" fill-opacity="1" data-original-color="#000000ff" stroke="none" stroke-opacity="1"/><path d="m52 48h2v2h-2z" fill="#000000" fill-opacity="1" data-original-color="#000000ff" stroke="none" stroke-opacity="1"/><path d="m56 48h2v2h-2z" fill="#000000" fill-opacity="1" data-original-color="#000000ff" stroke="none" stroke-opacity="1"/><path d="m56 44h2v2h-2z" fill="#000000" fill-opacity="1" data-original-color="#000000ff" stroke="none" stroke-opacity="1"/><path d="m52 44h2v2h-2z" fill="#000000" fill-opacity="1" data-original-color="#000000ff" stroke="none" stroke-opacity="1"/><path d="m48 44h2v2h-2z" fill="#000000" fill-opacity="1" data-original-color="#000000ff" stroke="none" stroke-opacity="1"/><path d="m38 28h2v14h-2z" fill="#000000" fill-opacity="1" data-original-color="#000000ff" stroke="none" stroke-opacity="1"/><path d="m42 28h2v14h-2z" fill="#000000" fill-opacity="1" data-original-color="#000000ff" stroke="none" stroke-opacity="1"/><path d="m56 23.935c3.713-2.382 6-6.516 6-10.935 0-7.168-5.832-13-13-13s-13 5.832-13 13c0 1.725.352 3.429 1.021 5.017-1.616-.072-3.021 1.241-3.021 2.878v23.105h-4v18h32v-24.281l-6 1.5zm-.205-2.307c-.297-.749-.902-1.338-1.665-1.628h3.313c-.491.593-1.036 1.144-1.648 1.628zm-16.419-3.37c-.726-1.324-1.169-2.77-1.308-4.258h4.963c.056 1.653.24 3.253.56 4.726zm9.624-16.258c1.075 0 2.22 1.527 3.009 4h-6.018c.789-2.473 1.934-4 3.009-4zm3.519 6c.244 1.209.408 2.553.46 4h-7.958c.052-1.447.217-2.791.46-4zm7.43 4h-4.971c-.046-1.419-.184-2.763-.409-4h4.217c.626 1.221 1.034 2.57 1.163 4zm-4.986 2h4.97c-.131 1.41-.534 2.762-1.171 4h-4.222c.234-1.27.375-2.615.423-4zm-11.941-2h-4.971c.13-1.43.537-2.779 1.164-4h4.217c-.226 1.237-.365 2.581-.41 4zm2.687 6.962c-.384-1.512-.614-3.195-.678-4.962h7.932c-.075 2.053-.375 4.004-.873 5.671zm11.77-12.962h-3.374c-.368-1.295-.838-2.422-1.391-3.341 1.874.675 3.518 1.834 4.765 3.341zm-12.193-3.341c-.553.919-1.023 2.046-1.391 3.341h-3.374c1.247-1.507 2.891-2.666 4.765-3.341zm-8.292 17.346 16.209 1.801c.455.051.797.434.797.89v1.199l-18-1.8v-1.2c0-.494.396-.936.994-.89zm-.994 4.1 18 1.8v13.814l-2 .5v-12.219h-2v12.719l-2 .5v-13.219h-2v13.719l-2 .5v1.781h-8zm8 21.895v2h-12v-2zm-12 14v-10h12v10zm28 0h-14v-16.219l14-3.5z" fill="#000000" fill-opacity="1" data-original-color="#000000ff" stroke="none" stroke-opacity="1"/></g></g></svg>