<svg id="Layer_1" height="300" viewBox="0 0 512 512" width="300" xmlns="http://www.w3.org/2000/svg" data-name="Layer 1" version="1.1" xmlns:xlink="http://www.w3.org/1999/xlink" xmlns:svgjs="http://svgjs.dev/svgjs"><g width="100%" height="100%" transform="matrix(1,0,0,1,0,0)"><path d="m448.47 138.11a16 16 0 0 0 -16.892-7.025l-182.963 39.85 77.134-147.522a16 16 0 0 0 -14.179-23.413h-90.549a16 16 0 0 0 -14.116 8.469l-144 269.9a16 16 0 0 0 16.633 23.331l177.185-28.269-101.246 215.769a16 16 0 0 0 27.231 16.468l265.021-349.278a16 16 0 0 0 .741-18.28zm-199.642 227.479 49.7-105.923a16 16 0 0 0 -17-22.6l-175.24 27.962 289.75-93.452z" fill="#4cd015" fill-opacity="1" data-original-color="#000000ff" stroke="none" stroke-opacity="1"/></g></svg>