<svg id="_x33_0" enable-background="new 0 0 62 62" height="512" viewBox="0 0 62 62" width="512" xmlns="http://www.w3.org/2000/svg"><g><g><path d="m4 46v9h2v5h10v-5-9z" fill="#f0bc5e"/></g><path d="m61 25s-5.776 0-10 0v4h1c1.657 0 3 1.343 3 3s-1.343 3-3 3h-1v.528c0 2.483 1.271 4.773 3.332 6.093l.833.553c.18-.271.383-.534.603-.782l2.948-3.316c2.118-2.383 3.284-5.451 3.284-8.638v-3.771z" fill="#f0bc5e"/><g><path d="m43 28c-1.654 0-3 1.346-3 3s1.346 3 3 3 3-1.346 3-3-1.346-3-3-3zm0 4c-.552 0-1-.449-1-1s.448-1 1-1 1 .449 1 1-.448 1-1 1z"/><path d="m4 46h4v2h-4z"/><path d="m10 46h6v2h-6z"/><path d="m4 50h12v2h-12z"/><path d="m4 54h12v2h-12z"/><path d="m14 58h2v2h-2z"/><path d="m10 58h2v2h-2z"/><path d="m6 58h2v2h-2z"/><path d="m62 26v-1c0-6.831-5.299-12.435-12-12.949v-1.051c0-1.654-1.346-3-3-3s-3 1.346-3 3v1.039c-2.403.185-4.658 1.04-6.555 2.395-2.07-8.336-9.717-14.434-18.445-14.434-10.477 0-19 8.523-19 19s8.523 19 19 19c7.258 0 13.821-4.156 17-10.537v.709c0 1.557-.606 3.021-1.707 4.122l-.707.706 2.414 2.414v3.586c0 2.757 2.243 5 5 5h3v3.082c-2.387 1.386-4 3.964-4 6.918h-2.586l-1.292-1.292c-.04-.039-.08-.077-.122-.114v-6.594c0-1.103-.897-2-2-2h-14c-1.103 0-2 .897-2 2v14c0 1.103.897 2 2 2h31c2.757 0 5-2.243 5-5v-7c0-1.474-.81-2.75-2-3.444v-.515c0-1.38.403-2.718 1.165-3.868l.562-.847-.855-.548c-1.664-1.065-2.708-2.827-2.854-4.778 2.197-.009 3.982-1.8 3.982-4 0-2.206-1.794-4-4-4v-2zm-33.139-18.275c-.971-.85-2.05-1.573-3.216-2.153l.764-1.844c1.4.686 2.694 1.564 3.855 2.594zm-5.062-2.924c-1.206-.408-2.479-.663-3.799-.75v-2.005c1.58.095 3.11.408 4.56.918zm-5.799-.75c-1.32.088-2.593.342-3.799.751l-.765-1.847c1.444-.503 2.974-.811 4.564-.904zm-5.644 1.521c-1.167.58-2.246 1.303-3.216 2.153l-1.414-1.414c1.159-1.031 2.456-1.902 3.864-2.588zm6.644.428c7.168 0 13 5.832 13 13 0 .332-.015.666-.04 1h-3.96c-1.103 0-2 .897-2 2v2c0 1.103.897 2 2 2h1.948c-2.369 3.688-6.505 6-10.948 6-7.168 0-13-5.832-13-13s5.832-13 13-13zm-9.861 24.275c.971.85 2.05 1.573 3.216 2.153l-.766 1.848c-1.408-.686-2.706-1.557-3.864-2.588zm5.062 2.924c1.206.409 2.479.663 3.799.751v2c-1.59-.093-3.12-.401-4.564-.904zm5.799.765c1.307-.089 2.58-.355 3.797-.769l.769 1.856c-1.454.506-2.987.817-4.566.911zm5.643-1.539c1.16-.576 2.244-1.295 3.221-2.147l1.418 1.418c-1.166 1.034-2.464 1.908-3.868 2.59zm4.641-3.555c.762-.867 1.424-1.829 1.975-2.87h2.235c-.716 1.585-1.66 3.028-2.787 4.293zm-2.284-4.87v-2h16.382l1 2zm16.169-9.942c-1.635 1.657-2.843 3.689-3.528 5.942h-5.444c1.735-3.394 5.142-5.649 8.972-5.942zm.213 5.942h-1.645c.822-2.294 2.297-4.285 4.254-5.753 3.082 2.308 4.931 5.885 4.996 9.753h-4.369l-1.447-2.894c-.34-.682-1.025-1.106-1.789-1.106zm15.573 4h-5.968c-.055-3.785-1.585-7.329-4.199-9.962 5.367.383 9.684 4.623 10.167 9.962zm-12.955-14c.552 0 1 .449 1 1v1h-2v-1c0-.551.448-1 1-1zm-11.294 5.918c-.658.672-1.245 1.418-1.749 2.227-.195-3.44-1.547-6.568-3.682-9.006l1.402-1.402c2.023 2.263 3.456 5.065 4.029 8.181zm-29.394-8.193 1.413 1.414c-2.312 2.64-3.725 6.085-3.725 9.861s1.413 7.221 3.725 9.861l-1.413 1.414c-2.673-3.004-4.312-6.947-4.312-11.275s1.639-8.271 4.312-11.275zm41.688 40.275h.556c-.344.591-.556 1.268-.556 2v4h-6c0-3.309 2.691-6 6-6zm-22-2h2v2h-2zm2.537 14h-8.537v-14h4v4h6v-4h4v6.036c-1 .173-1.791.964-1.965 1.964h-.035c-2.206 0-4 1.794-4 4 0 .728.195 1.411.537 2zm1.463-2c0-1.103.897-2 2-2h2v-1.586c0-.338.468-.531.707-.293l1.293 1.293v4.586h-4c-1.103 0-2-.897-2-2zm24-1c0 1.654-1.346 3-3 3h-13v-4h12v-6c0-1.103.897-2 2-2s2 .897 2 2zm-2-27c1.103 0 2 .897 2 2s-.897 2-2 2h-2v1.528c0 2.497 1.11 4.814 3.011 6.368-.658 1.265-1.002 2.666-1.008 4.104-.001 0-.002 0-.002 0h-4c-.692 0-1.359.097-2 .263v-2.263h3v-2h-8c-1.302 0-2.402-.839-2.816-2h1.815c2.206 0 4-1.794 4-4h-2c0 1.103-.897 2-2 2h-2v-3.414l-1.63-1.63c1.057-1.365 1.63-3.03 1.63-4.784v-2.172h12v4z"/><path d="m18 27.899v2.101h2v-2h4v-5c0-2.757-2.243-5-5-5-1.654 0-3-1.346-3-3v-3h3c1.654 0 3 1.346 3 3v3h2v-3c0-2.414-1.721-4.434-4-4.899v-2.101h-2v2h-4v5c0 2.757 2.243 5 5 5 1.654 0 3 1.346 3 3v3h-3c-1.654 0-3-1.346-3-3v-3h-2v3c0 2.414 1.721 4.434 4 4.899z"/></g></g></svg>